<?xml version="1.0" standalone="no"?>
<!DOCTYPE svg PUBLIC "-//W3C//DTD SVG 20010904//EN"
 "http://www.w3.org/TR/2001/REC-SVG-20010904/DTD/svg10.dtd">
<svg version="1.0" xmlns="http://www.w3.org/2000/svg"
 width="320.000000pt" height="320.000000pt" viewBox="0 0 320.000000 320.000000"
 preserveAspectRatio="xMidYMid meet">
<metadata>
Created by potrace 1.11, written by Peter Selinger 2001-2013
</metadata>
<g transform="translate(0.000000,320.000000) scale(0.100000,-0.100000)"
fill="#000000" stroke="none">
<path d="M0 1600 l0 -1600 1600 0 1600 0 0 1600 0 1600 -1600 0 -1600 0 0
-1600z m300 550 l0 -50 50 0 50 0 0 50 0 50 50 0 50 0 0 -50 0 -50 50 0 50 0
0 -150 0 -150 -50 0 -50 0 0 150 0 150 -50 0 -50 0 0 -150 0 -150 -50 0 -50 0
0 150 0 150 -50 0 -50 0 0 -150 0 -150 -50 0 -50 0 0 150 0 150 50 0 50 0 0
50 0 50 50 0 50 0 0 -50z m600 0 l0 -50 50 0 50 0 0 -150 0 -150 -50 0 -50 0
0 50 0 50 -50 0 -50 0 0 -50 0 -50 -50 0 -50 0 0 150 0 150 50 0 50 0 0 50 0
50 50 0 50 0 0 -50z m400 0 l0 -50 50 0 50 0 0 -150 0 -150 -150 0 -150 0 0
200 0 200 100 0 100 0 0 -50z m500 0 l0 -50 -100 0 -100 0 0 -50 0 -50 50 0
50 0 0 -50 0 -50 50 0 50 0 0 -50 0 -50 -150 0 -150 0 0 200 0 200 150 0 150
0 0 -50z m800 0 l0 -50 -50 0 -50 0 0 -100 0 -100 50 0 50 0 0 -50 0 -50 -150
0 -150 0 0 50 0 50 50 0 50 0 0 100 0 100 -50 0 -50 0 0 50 0 50 150 0 150 0
0 -50z m300 0 l0 -50 50 0 50 0 0 -150 0 -150 -50 0 -50 0 0 150 0 150 -50 0
-50 0 0 -150 0 -150 -50 0 -50 0 0 200 0 200 100 0 100 0 0 -50z m-2500 -500
l0 -50 -100 0 -100 0 0 -100 0 -100 100 0 100 0 0 -50 0 -50 -150 0 -150 0 0
200 0 200 150 0 150 0 0 -50z m400 -150 l0 -200 -150 0 -150 0 0 200 0 200
150 0 150 0 0 -200z m300 150 l0 -50 50 0 50 0 0 50 0 50 50 0 50 0 0 -50 0
-50 50 0 50 0 0 -150 0 -150 -50 0 -50 0 0 150 0 150 -50 0 -50 0 0 -150 0
-150 -50 0 -50 0 0 150 0 150 -50 0 -50 0 0 -150 0 -150 -50 0 -50 0 0 150 0
150 50 0 50 0 0 50 0 50 50 0 50 0 0 -50z m700 -100 l0 -150 -100 0 -100 0 0
-50 0 -50 -50 0 -50 0 0 200 0 200 150 0 150 0 0 -150z m200 0 l0 -150 50 0
50 0 0 150 0 150 50 0 50 0 0 -150 0 -150 -50 0 -50 0 0 -50 0 -50 -100 0
-100 0 0 200 0 200 50 0 50 0 0 -150z m600 100 l0 -50 -50 0 -50 0 0 -150 0
-150 -50 0 -50 0 0 150 0 150 -50 0 -50 0 0 50 0 50 150 0 150 0 0 -50z m400
0 l0 -50 -100 0 -100 0 0 -50 0 -50 50 0 50 0 0 -50 0 -50 50 0 50 0 0 -50 0
-50 -150 0 -150 0 0 200 0 200 150 0 150 0 0 -50z m0 -550 l0 -100 -50 0 -50
0 0 -50 0 -50 50 0 50 0 0 -50 0 -50 -50 0 -50 0 0 50 0 50 -50 0 -50 0 0 -50
0 -50 -50 0 -50 0 0 200 0 200 150 0 150 0 0 -100z"/>
<path d="M800 2050 l0 -50 50 0 50 0 0 50 0 50 -50 0 -50 0 0 -50z"/>
<path d="M1200 2000 l0 -100 50 0 50 0 0 100 0 100 -50 0 -50 0 0 -100z"/>
<path d="M600 1500 l0 -100 50 0 50 0 0 100 0 100 -50 0 -50 0 0 -100z"/>
<path d="M1600 1550 l0 -50 50 0 50 0 0 50 0 50 -50 0 -50 0 0 -50z"/>
<path d="M2800 1050 l0 -50 50 0 50 0 0 50 0 50 -50 0 -50 0 0 -50z"/>
</g>
</svg>
